<svg xmlns="http://www.w3.org/2000/svg" fill="none" viewBox="0 0 24 24" id="Sports-Kabaddi--Streamline-Sharp-Material" height="24" width="24">
  <desc>
    Sports Kabaddi Streamline Icon: https://streamlinehq.com
  </desc>
  <path fill="#FFFFFF" d="M1.0999 22 0.02490235 20.925 3.7249 17.175l-1.525 -4.3 4.2 -4.225c0.16665 -0.16665 0.35835 -0.3 0.575 -0.4 0.21665 -0.1 0.43335 -0.15 0.65 -0.15s0.43335 0.05 0.65 0.15c0.21665 0.1 0.40835 0.23335 0.575 0.4l2.1 1.975c0.71665 0.65 1.33335 1.07915 1.85 1.2875 0.51665 0.20835 1.15 0.3125 1.9 0.3125v1.5c-0.83335 0 -1.64585 -0.1375 -2.4375 -0.4125 -0.79165 -0.275 -1.52915 -0.75415 -2.2125 -1.4375l-0.925 -0.925 -2.85 2.85 2.35 2.3V22h-1.5V16.775l-1.9 -1.8v2.85L1.0999 22Zm14.175 0V15.2l2.25 -2.125 -0.825 -4.475c-0.66665 0.9 -1.28335 1.55835 -1.85 1.975 -0.56665 0.41665 -1.15835 0.70835 -1.775 0.875 -0.26665 -0.13335 -0.54585 -0.29585 -0.8375 -0.4875 -0.29165 -0.19165 -0.52085 -0.3875 -0.6875 -0.5875 0.75 -0.13335 1.45835 -0.39585 2.125 -0.7875s1.29165 -1.0625 1.875 -2.0125l1.025 -1.675c0.28335 -0.46665 0.63335 -0.7625 1.05 -0.8875 0.41665 -0.125 0.85 -0.0875 1.3 0.1125l5.05 2.2v4.3h-1.5v-3.3l-2.45 -1.1 2.825 14.775h-1.55l-2 -8 -2.525 2.525V22h-1.5Zm-4.075 -13.6c-0.5 0 -0.92915 -0.17915 -1.2875 -0.5375 -0.35835 -0.35835 -0.5375 -0.7875 -0.5375 -1.2875 0 -0.5 0.17915 -0.92915 0.5375 -1.2875 0.35835 -0.358335 0.7875 -0.5375 1.2875 -0.5375 0.5 0 0.92915 0.179165 1.2875 0.5375 0.35835 0.35835 0.5375 0.7875 0.5375 1.2875 0 0.5 -0.17915 0.92915 -0.5375 1.2875 -0.35835 0.35835 -0.7875 0.5375 -1.2875 0.5375Zm5.25 -4.25c-0.5 0 -0.92915 -0.179165 -1.2875 -0.5375 -0.35835 -0.358335 -0.5375 -0.7875 -0.5375 -1.2875 0 -0.5 0.17915 -0.929165 0.5375 -1.2875 0.35835 -0.358335 0.7875 -0.5375 1.2875 -0.5375 0.5 0 0.92915 0.179165 1.2875 0.5375 0.35835 0.358335 0.5375 0.7875 0.5375 1.2875 0 0.5 -0.17915 0.929165 -0.5375 1.2875 -0.35835 0.358335 -0.7875 0.5375 -1.2875 0.5375Z" stroke-width="0.5"></path>
</svg>